<svg xmlns="http://www.w3.org/2000/svg" width="64" height="64" viewBox="0 0 64 64" fill="none">
  <path
    d="M10 38C12 48 24 56 36 56C48 56 56 46 58 34C58.7 29.8 56.2 26.3 52.4 25C49 23.8 44.7 25.2 42.2 28.5C39.3 32.4 34.9 36.1 29.2 38.9C23.6 41.6 17 42.7 12.2 41.4C11 41.1 10.2 39.7 10 38Z"
    fill="#F5C842"
    stroke="#C79A1E"
    stroke-width="2.5"
    stroke-linecap="round"
    stroke-linejoin="round"
  />
  <path
    d="M18 40.5C21.8 42.1 26.8 41.7 31.8 39.3C36.9 36.8 41 33.4 43.7 30.1"
    stroke="#FFE79A"
    stroke-width="2"
    stroke-linecap="round"
  />
  <path
    d="M56.5 33C56.6 31.1 55.8 29.5 54.2 28.6"
    stroke="#8A6A10"
    stroke-width="2.5"
    stroke-linecap="round"
  />
</svg>
